<svg width="214" height="60" viewBox="0 0 214 60" fill="none" xmlns="http://www.w3.org/2000/svg">
<path d="M0.998047 10.8139C0.998047 4.84154 5.8294 -4.43057e-08 11.7892 -9.89595e-08L50.2069 -4.51268e-07C56.1667 -5.05922e-07 60.998 4.84153 60.998 10.8139L60.998 49.1861C60.998 55.1585 56.1667 60 50.2069 60L11.7892 60C5.82941 60 0.998047 55.1585 0.998047 49.1861L0.998047 10.8139Z" fill="#0B6755"/>
<path d="M45.9971 14V22H13.9971L23.9971 14H45.9971Z" fill="white"/>
<path d="M45.9971 38L35.9971 46H13.9971V38H45.9971Z" fill="white"/>
<path d="M45.9971 25H27.3425L13.9971 35H32.6516L45.9971 25Z" fill="#FFAF01"/>
<path d="M81.4525 39.344H96.5785V44.6546H73.9973V39.7326L88.563 19.5265H73.9973V14.2159H96.1475V19.0515L81.4525 39.344Z" fill="white"/>
<path d="M109.618 22.9373C112.778 22.9373 115.105 23.6857 116.599 25.1825C118.122 26.6792 118.883 28.9963 118.883 32.1337V44.6546H112.721V41.5028C112.29 42.5966 111.572 43.4601 110.566 44.0933C109.561 44.6978 108.383 45 107.032 45C105.596 45 104.289 44.7122 103.111 44.1365C101.962 43.5608 101.042 42.7549 100.353 41.7187C99.6921 40.6824 99.3617 39.5311 99.3617 38.2646C99.3617 36.7103 99.7496 35.487 100.525 34.5947C101.33 33.7024 102.608 33.0548 104.361 32.6518C106.113 32.2488 108.512 32.0474 111.557 32.0474H112.678V31.2702C112.678 30.0037 112.405 29.1114 111.859 28.5933C111.313 28.0752 110.365 27.8162 109.015 27.8162C107.98 27.8162 106.831 28.0033 105.567 28.3774C104.303 28.7516 103.097 29.2697 101.947 29.9318L100.224 25.571C101.43 24.8227 102.91 24.2038 104.662 23.7145C106.443 23.1964 108.095 22.9373 109.618 22.9373ZM108.455 40.5097C109.719 40.5097 110.738 40.0924 111.514 39.2577C112.29 38.3941 112.678 37.286 112.678 35.9331V35.1992H111.945C109.618 35.1992 107.98 35.3863 107.032 35.7604C106.113 36.1346 105.653 36.811 105.653 37.7897C105.653 38.5669 105.912 39.2145 106.429 39.7326C106.975 40.2507 107.65 40.5097 108.455 40.5097Z" fill="white"/>
<path d="M131.936 23.4554H137.237V28.3343H131.936V44.6546H125.429V28.3343H121.421V23.4554H125.429C125.487 20.4619 126.348 18.2168 128.015 16.7201C129.71 15.1945 132.281 14.331 135.729 14.1295L138.099 14L138.487 18.7925L136.461 18.8788C134.795 18.9364 133.617 19.253 132.927 19.8287C132.267 20.3756 131.936 21.2967 131.936 22.5919V23.4554Z" fill="white"/>
<path d="M155.077 28.2911L151.414 28.6797C149.604 28.8524 148.325 29.3705 147.578 30.234C146.831 31.0687 146.458 32.1913 146.458 33.6017V44.6546H139.951V23.4554H146.199V27.039C147.262 24.5924 149.46 23.2539 152.793 23.0237L154.689 22.8942L155.077 28.2911Z" fill="white"/>
<path d="M166.642 22.9373C169.802 22.9373 172.129 23.6857 173.623 25.1825C175.145 26.6792 175.907 28.9963 175.907 32.1337V44.6546H169.744V41.5028C169.313 42.5966 168.595 43.4601 167.59 44.0933C166.584 44.6978 165.406 45 164.056 45C162.62 45 161.312 44.7122 160.134 44.1365C158.985 43.5608 158.066 42.7549 157.376 41.7187C156.716 40.6824 156.385 39.5311 156.385 38.2646C156.385 36.7103 156.773 35.487 157.549 34.5947C158.353 33.7024 159.632 33.0548 161.384 32.6518C163.137 32.2488 165.536 32.0474 168.581 32.0474H169.701V31.2702C169.701 30.0037 169.428 29.1114 168.882 28.5933C168.337 28.0752 167.389 27.8162 166.038 27.8162C165.004 27.8162 163.855 28.0033 162.591 28.3774C161.327 28.7516 160.12 29.2697 158.971 29.9318L157.247 25.571C158.454 24.8227 159.933 24.2038 161.686 23.7145C163.467 23.1964 165.119 22.9373 166.642 22.9373ZM165.478 40.5097C166.742 40.5097 167.762 40.0924 168.538 39.2577C169.313 38.3941 169.701 37.286 169.701 35.9331V35.1992H168.969C166.642 35.1992 165.004 35.3863 164.056 35.7604C163.137 36.1346 162.677 36.811 162.677 37.7897C162.677 38.5669 162.936 39.2145 163.453 39.7326C163.999 40.2507 164.674 40.5097 165.478 40.5097Z" fill="white"/>
<path d="M206.844 22.9373C209.257 22.9373 211.053 23.6713 212.23 25.1393C213.408 26.6072 213.997 28.8524 213.997 31.8747V44.6546H207.49V32.0905C207.49 30.6513 207.26 29.6151 206.801 28.9819C206.37 28.3487 205.623 28.032 204.56 28.032C203.324 28.032 202.362 28.4638 201.672 29.3273C200.983 30.1908 200.638 31.3997 200.638 32.954V44.6546H194.131V32.0905C194.131 30.6513 193.901 29.6151 193.442 28.9819C193.011 28.3487 192.264 28.032 191.201 28.032C189.965 28.032 189.003 28.4638 188.313 29.3273C187.624 30.1908 187.279 31.3997 187.279 32.954V44.6546H180.772V23.4554H187.107V26.305C187.768 25.2112 188.644 24.3765 189.736 23.8008C190.856 23.2252 192.134 22.9373 193.571 22.9373C196.702 22.9373 198.8 24.247 199.863 26.8663C200.552 25.6574 201.514 24.7075 202.75 24.0167C203.985 23.2971 205.35 22.9373 206.844 22.9373Z" fill="white"/>
</svg>
